<?xml version="1.0" standalone="no"?>
<!DOCTYPE svg PUBLIC "-//W3C//DTD SVG 20010904//EN"
 "http://www.w3.org/TR/2001/REC-SVG-20010904/DTD/svg10.dtd">
<svg version="1.0" xmlns="http://www.w3.org/2000/svg"
 width="300.000000pt" height="300.000000pt" viewBox="0 0 300.000000 300.000000"
 preserveAspectRatio="xMidYMid meet">
<metadata>
Created by potrace 1.11, written by Peter Selinger 2001-2013
</metadata>
<g transform="translate(0.000000,300.000000) scale(0.100000,-0.100000)"
fill="#000000" stroke="none">
<path d="M0 1500 l0 -1500 1500 0 1500 0 0 1500 0 1500 -1500 0 -1500 0 0
-1500z m770 1340 l0 -50 -255 0 -255 0 0 -1320 0 -1320 255 0 255 0 0 -50 0
-50 -300 0 -300 0 0 1420 0 1420 300 0 300 0 0 -50z m2060 -1370 l0 -1420
-300 0 -300 0 0 50 0 50 255 0 255 0 0 1320 0 1320 -255 0 -255 0 0 50 0 50
300 0 300 0 0 -1420z m-590 1035 c74 -14 135 -27 137 -29 10 -10 -11 -76 -28
-92 -18 -17 -30 -17 -148 -6 -197 18 -305 -8 -352 -84 -25 -41 -41 -171 -29
-236 21 -107 93 -193 335 -398 168 -142 228 -203 279 -282 63 -99 69 -132 64
-355 -4 -168 -8 -208 -26 -263 -51 -151 -153 -227 -339 -250 -62 -8 -107 -5
-261 16 -103 13 -197 27 -209 30 -21 4 -23 10 -23 80 l0 75 43 -5 c103 -14
386 -27 431 -21 96 12 150 47 189 120 20 36 22 55 22 210 0 156 -2 174 -22
215 -33 67 -97 134 -288 305 -189 169 -281 274 -329 375 -31 65 -31 65 -31
240 0 171 1 176 28 231 37 75 113 123 227 142 74 12 207 5 330 -18z m-1484
-19 c19 -14 19 -36 19 -970 0 -851 -2 -957 -16 -971 -9 -9 -42 -18 -82 -22
l-67 -6 0 992 0 991 63 0 c39 0 71 -5 83 -14z m613 5 c9 -6 11 -18 7 -34 -3
-14 -89 -231 -190 -481 l-184 -455 205 -478 c113 -263 209 -489 214 -502 l10
-24 -76 6 c-42 4 -88 13 -104 21 -40 21 -68 81 -260 553 l-172 423 197 472
c108 260 201 481 206 491 7 13 22 17 71 17 34 0 68 -4 76 -9z"/>
</g>
</svg>
